<svg width="25" height="25" viewBox="0 0 25 25" fill="none" xmlns="http://www.w3.org/2000/svg">
<path d="M21.9289 12.1856C21.9289 11.4165 21.3053 10.793 20.5362 10.793H13.5729V3.82967C13.5729 3.06053 12.9494 2.43701 12.1802 2.43701C11.4111 2.43701 10.7876 3.06053 10.7876 3.82967V10.793H3.8243C3.05515 10.793 2.43164 11.4165 2.43164 12.1856C2.43164 12.9548 3.05516 13.5783 3.8243 13.5783H10.7876V20.5416C10.7876 21.3107 11.4111 21.9342 12.1802 21.9342C12.9494 21.9342 13.5729 21.3107 13.5729 20.5416V13.5783H20.5362C21.3053 13.5783 21.9289 12.9548 21.9289 12.1856Z" fill="white" style="fill:white;fill-opacity:1;"/>
</svg>
