<svg width="19" height="19" viewBox="0 0 19 19" fill="none" xmlns="http://www.w3.org/2000/svg">
<path d="M13.6435 10.9061C13.4462 11.0973 13.3556 11.3738 13.4005 11.6449L14.0776 15.392C14.1347 15.7096 14.0007 16.031 13.7349 16.2146C13.4744 16.405 13.1279 16.4278 12.8438 16.2755L9.47064 14.5162C9.35335 14.4537 9.22311 14.4202 9.08983 14.4164H8.88344C8.81185 14.4271 8.74178 14.4499 8.6778 14.485L5.30387 16.2527C5.13708 16.3365 4.9482 16.3662 4.76313 16.3365C4.31226 16.2512 4.01142 15.8216 4.0853 15.3684L4.76313 11.6213C4.80807 11.3479 4.71743 11.0699 4.52018 10.8757L1.77001 8.21C1.54 7.98684 1.46003 7.65173 1.56513 7.34937C1.66719 7.04777 1.92766 6.82766 2.2422 6.77816L6.0274 6.22903C6.31529 6.19933 6.56814 6.02416 6.69762 5.76521L8.36554 2.34555C8.40515 2.26938 8.45617 2.19932 8.51786 2.13991L8.58641 2.0866C8.6222 2.04699 8.66333 2.01424 8.70903 1.98759L8.79204 1.95712L8.92152 1.90381H9.24215C9.52852 1.93351 9.78061 2.10488 9.91237 2.36078L11.6024 5.76521C11.7242 6.01426 11.9611 6.18714 12.2345 6.22903L16.0197 6.77816C16.3396 6.82385 16.6069 7.04472 16.7128 7.34937C16.8126 7.65478 16.7265 7.98989 16.4919 8.21L13.6435 10.9061Z" fill="#F6B76F" style="fill:#F6B76F;fill:color(display-p3 0.9647 0.7176 0.4353);fill-opacity:1;"/>
</svg>
